# xmcd
#
# Track frame offsets:
#	150
#	19427
#	31990
#	52090
#	65477
#	77290
#	90865
#	105902
#	117527
#	131102
#	149590
#	166165
#	186040
#	199277
#	215740
#	230665
#	249640
#	270565
#	285452
#	301802
#
# Disc length: 4305 seconds
#
# Revision: 1
# Processed by: cddbd v1.5PL3 Copyright (c) Steve Scherf et al.
# Submitted via: audiograbber 1.82.02
#
DISCID=2010cf14
DTITLE=Roy Carrier and the Night Rockers - Offshore Blues and Zydeco
DYEAR=1997
DGENRE=Zydeco/Cajun
TTITLE0=Chicago
TTITLE1=Who Got her?
TTITLE2=Im the One You Need
TTITLE3=My Baby dont wear no shoes
TTITLE4=Kansas City
TTITLE5=Hot Pepper
TTITLE6=Leaving Lawtell
TTITLE7=Living In The USA
TTITLE8=Teebu
TTITLE9=Black Snake In My Room
TTITLE10=You Stole My Love
TTITLE11=Tired of Worrying
TTITLE12=Shes in Love with the Zydeco
TTITLE13=Let the Good Times Roll
TTITLE14=Zydecos Back Again
TTITLE15=Mama Dont Know
TTITLE16=You Dont Have to Go
TTITLE17=You Got Me Dancing
TTITLE18=You Used to Call Me in the Morning
TTITLE19=On My Way Back Home
EXTD=
EXTT0=
EXTT1=
EXTT2=
EXTT3=
EXTT4=
EXTT5=
EXTT6=
EXTT7=
EXTT8=
EXTT9=
EXTT10=
EXTT11=
EXTT12=
EXTT13=
EXTT14=
EXTT15=
EXTT16=
EXTT17=
EXTT18=
EXTT19=
PLAYORDER=
